# generated from PmQm by Jehee Lee
:FULLY-SPECIFIED
:DEGREES
123
root 51.42943627 38.53700323 -104.1092415 82.80966632 85.7447005 81.42398843
RightUpLeg -6.646884946 -0.7453585823 -8.691236683
RightLeg 54.73176192 -4.03251267 -11.07989067
RightFoot 16.87344838 15.79567739 5.937189029
RightToes 2.32829e-010 -1.59028e-015 9.93923e-017
Spine -7.156561866 2.192774118 -0.3495186524
Spine1 12.58159011 3.779607961 -8.859403652
HEad -10.95362685 -3.058958446 2.324656645
LeftShoulder1 9.93923e-017 0 1.22299e-017
LeftArm -6.599681884 39.93016714 -73.60455984
LeftForeArm -10.45827374 -5.325537262 -6.581468644
LeftHand 0.970123 6.82072 -4.29005
RightShoulder 1.98785e-016 -4.96962e-017 1.55301e-017
RightArm 20.68931634 -36.20283342 90.30526425
RightForeArm -43.36041459 19.73561349 -9.223474288
RightHand 1.03939 -10.2002 -2.94224
LeftUpLeg -24.0541314 -3.226046221 -5.207354923
LeftLeg 22.30267352 0 0
LeftFoot -4.160792239 -3.919766817 0.02249827617
LeftToes 8.82235e-011 9.04645e-011 1.87288e-011
124
root 52.9454424 38.80596671 -104.2721646 78.70881424 85.79563722 77.4863458
RightUpLeg -11.07660774 0.06731810483 -7.914835218
RightLeg 59.20663317 -2.858531488 -13.65644551
RightFoot 14.72423972 13.32544375 7.190807906
RightToes 2.32829e-010 -1.59028e-015 9.93923e-017
Spine -6.580303668 1.426715935 -2.500291036
Spine1 12.02732856 2.53177302 -7.099113957
HEad -10.67315642 -1.707370066 1.845580681
LeftShoulder1 9.93923e-017 0 1.22299e-017
LeftArm -3.809392417 36.06141893 -75.4896582
LeftForeArm -14.22375103 -8.752497789 -5.514277912
LeftHand 0.942205 6.57551 -3.70458
RightShoulder 1.98785e-016 -4.96962e-017 1.55301e-017
RightArm 18.87628383 -39.36248856 90.13882366
RightForeArm -38.50217185 18.41094486 -4.684044826
RightHand 1.03827 -10.3208 -2.49664
LeftUpLeg -21.24647479 -2.854872707 -4.805076801
LeftLeg 23.4347813 0 0
LeftFoot -5.915423086 -4.846200774 -0.1880333863
LeftToes 8.82235e-011 9.04645e-011 1.87288e-011
125
root 54.50446437 39.10022876 -104.4153419 86.34527907 86.55224964 85.31110679
RightUpLeg -14.81967963 -0.1672058574 -6.220105923
RightLeg 60.45967047 -0.3203444253 -12.23030862
RightFoot 10.01559346 11.53300014 6.555799162
RightToes 2.32829e-010 -1.59028e-015 9.93923e-017
Spine -6.315187585 0.1881540979 -4.080899583
Spine1 11.21637537 0.7403442811 -4.786584006
HEad -9.704885422 -0.1793111848 1.644131506
LeftShoulder1 9.93923e-017 0 1.22299e-017
LeftArm 3.522023335 33.1756349 -76.94828246
LeftForeArm -23.2206879 -14.72302294 -1.994601734
LeftHand 0.92793 6.45217 -3.57146
RightShoulder 1.98785e-016 -4.96962e-017 1.55301e-017
RightArm 20.91748875 -43.21982022 89.5968458
RightForeArm -37.60342559 17.83731527 -3.186553323
RightHand 1.04716 -10.4116 -2.45404
LeftUpLeg -17.91149047 -2.164740768 -4.094476926
LeftLeg 23.18622678 0 0
LeftFoot -7.491358326 -6.848333931 -0.3060153582
LeftToes 8.82235e-011 9.04645e-011 1.87288e-011
126
root 56.02388568 39.3243055 -104.5249735 99.74321407 87.22081463 98.89695237
RightUpLeg -18.25774315 -0.5144151477 -4.427542385
RightLeg 59.20294232 2.178176657 -9.204605462
RightFoot 6.028384508 9.869874543 5.720068786
RightToes 2.32829e-010 -1.59028e-015 9.93923e-017
Spine -6.224798102 -1.022952818 -5.439737597
Spine1 10.74555347 -0.9501929401 -2.762801687
HEad -8.939168264 1.155813541 1.581018609
LeftShoulder1 9.93923e-017 0 1.22299e-017
LeftArm 16.56862281 30.40327029 -78.14285115
LeftForeArm -38.25626847 -20.89606089 4.907431017
LeftHand 0.925915 6.44464 -3.3863
RightShoulder 1.98785e-016 -4.96962e-017 1.55301e-017
RightArm 22.97534893 -47.46687037 88.38872627
RightForeArm -38.47724037 17.9757794 -3.561399452
RightHand 1.02044 -10.2376 -2.25741
LeftUpLeg -14.66199201 -1.100788724 -3.331448979
LeftLeg 22.53843593 0 0
LeftFoot -8.82650363 -9.216499472 -0.2374582033
LeftToes 8.82235e-011 9.04645e-011 1.87288e-011
127
root 57.51844479 39.45480002 -104.5991921 111.000302 87.58409114 110.3254388
RightUpLeg -21.40636063 -0.7308576769 -2.947118714
RightLeg 55.87190314 3.931845556 -6.662574195
RightFoot 2.764767114 8.22615331 5.577660065
RightToes 2.32829e-010 -1.59028e-015 9.93923e-017
Spine -6.476834001 -1.996266867 -6.638626845
Spine1 10.81716567 -2.272585215 -1.176215133
HEad -8.783275448 2.163025137 1.510925589
LeftShoulder1 9.93923e-017 0 1.22299e-017
LeftArm 28.24911652 27.30387139 -78.72481338
LeftForeArm -50.97349422 -24.47461644 12.78925711
LeftHand 0.913312 6.34459 -3.16304
RightShoulder 1.98785e-016 -4.96962e-017 1.55301e-017
RightArm 24.95092971 -51.58391205 86.49370238
RightForeArm -40.64563351 18.51131628 -5.096103606
RightHand 0.9969 -10.0451 -2.20697
LeftUpLeg -11.56521542 0.2143230433 -2.614021253
LeftLeg 21.80459573 0 0
LeftFoot -9.898751009 -11.41688776 -0.01728636914
LeftToes 8.82235e-011 9.04645e-011 1.87288e-011
128
root 59.00454033 39.52211482 -104.6305643 127.284296 87.65103114 126.758925
RightUpLeg -24.08298038 -1.456860505 -1.726581139
RightLeg 50.59424098 5.079367017 -4.827731226
RightFoot 0.02859128138 6.72410006 5.845561158
RightToes 2.32829e-010 -1.59028e-015 9.93923e-017
Spine -6.788023987 -2.989844041 -7.723762149
Spine1 10.93477683 -3.545371936 0.5403474714
HEad -8.843318695 2.986940174 1.472876773
LeftShoulder1 9.93923e-017 0 1.22299e-017
LeftArm 31.88723707 23.92340025 -78.45912758
LeftForeArm -53.63688285 -26.43298621 17.1456967
LeftHand 0.89027 6.12658 -3.34082
RightShoulder 1.98785e-016 -4.96962e-017 1.55301e-017
RightArm 27.40953019 -55.24304649 84.25524685
RightForeArm -43.19013309 19.08278336 -7.056815929
RightHand 1.02418 -10.1508 -2.66158
LeftUpLeg -8.405537891 1.308041533 -1.84320628
LeftLeg 20.71538356 0 0
LeftFoot -11.02069558 -13.4467795 0.223279649
LeftToes 8.82235e-011 9.04645e-011 1.87288e-011
129
root 60.45645955 39.52645185 -104.6286426 145.6129141 87.28356814 145.1930535
RightUpLeg -26.19721805 -2.809910488 -0.7583214563
RightLeg 43.4851413 5.907688845 -3.445339743
RightFoot -1.091315642 5.440842927 5.876326318
RightToes 2.32829e-010 -1.59028e-015 9.93923e-017
Spine -6.845519161 -4.022498645 -8.720262644
Spine1 10.81351879 -4.81636505 2.402248215
HEad -8.700458735 3.742787612 1.490087455
LeftShoulder1 9.93923e-017 0 1.22299e-017
LeftArm 30.01286693 20.50987836 -77.73300493
LeftForeArm -49.90317989 -28.37589464 18.07386607
LeftHand 0.874162 5.96507 -3.53657
RightShoulder 1.98785e-016 -4.96962e-017 1.55301e-017
RightArm 28.9357223 -58.30468862 81.8964138
RightForeArm -44.13277519 19.34946355 -8.402974779
RightHand 1.06596 -10.3388 -3.23031
LeftUpLeg -5.37886614 1.768371108 -1.118399675
LeftLeg 19.56951299 0 0
LeftFoot -12.45249561 -14.86951062 0.5405035379
LeftToes 8.82235e-011 9.04645e-011 1.87288e-011
130
root 61.87954593 39.4131 -104.6043985 153.3586229 86.78810845 152.9391387
RightUpLeg -27.71458529 -3.937937639 -0.1454817267
RightLeg 34.80761616 6.264410298 -2.612306878
RightFoot -0.6030174378 4.375846127 5.794909296
RightToes 2.32829e-010 -1.59028e-015 9.93923e-017
Spine -6.99225 -4.80394 -9.49489
Spine1 10.8103 -5.72047 3.70045
HEad -8.50494 4.3499 1.50706
LeftShoulder1 9.93923e-017 0 1.22299e-017
LeftArm 29.324 17.2202 -77.0933
LeftForeArm -48.1612 -29.8036 18.6995
LeftHand 0.872868 5.99207 -3.07255
RightShoulder 1.98785e-016 -4.96962e-017 1.55301e-017
RightArm 28.776 -60.6454 79.5323
RightForeArm -43.3166 19.3197 -8.73957
RightHand 1.06334 -10.2749 -3.3763
LeftUpLeg -2.958944467 1.604383222 -0.6574074701
LeftLeg 19.38268575 0 0
LeftFoot -14.36390501 -15.08193567 1.333075836
LeftToes 8.82235e-011 9.04645e-011 1.87288e-011
